<svg width="20" height="20" viewBox="0 0 20 20" fill="none" xmlns="http://www.w3.org/2000/svg">
<g id="trophy, win, champion">
<path id="vector" fill-rule="evenodd" clip-rule="evenodd" d="M5.62484 1.66669C4.81942 1.66669 4.1665 2.31961 4.1665 3.12502V3.33335H3.12484C2.31942 3.33335 1.6665 3.98627 1.6665 4.79169V6.04169C1.6665 7.61742 2.83276 8.92077 4.34917 9.13562C4.94728 11.4225 6.9487 13.1419 9.37809 13.3184V14.1667H6.45817C5.65276 14.1667 4.99984 14.8196 4.99984 15.625V16.875C4.99984 17.6804 5.65276 18.3334 6.45817 18.3334H13.5415C14.3469 18.3334 14.9998 17.6804 14.9998 16.875V15.625C14.9998 14.8196 14.3469 14.1667 13.5415 14.1667H10.6281V13.3179C13.0546 13.1388 15.0529 11.4205 15.6505 9.13562C17.1669 8.92077 18.3332 7.61742 18.3332 6.04169V4.79169C18.3332 3.98627 17.6803 3.33335 16.8748 3.33335H15.8332V3.12502C15.8332 2.31961 15.1803 1.66669 14.3748 1.66669H5.62484ZM3.12484 4.58335H4.1665V7.70835C4.1665 7.74241 4.16681 7.7764 4.16741 7.81032C3.43869 7.55317 2.9165 6.85841 2.9165 6.04169V4.79169C2.9165 4.67663 3.00978 4.58335 3.12484 4.58335ZM17.0832 6.04169C17.0832 6.85841 16.561 7.55317 15.8323 7.81032C15.8329 7.7764 15.8332 7.74241 15.8332 7.70835V4.58335H16.8748C16.9899 4.58335 17.0832 4.67663 17.0832 4.79169V6.04169Z" fill="#53270D"/>
</g>
</svg>
