<svg width="60" height="60" viewBox="0 0 60 60" fill="none" xmlns="http://www.w3.org/2000/svg">
<rect width="60" height="60" rx="30" fill="url(#paint0_radial_702_3503)"/>
<path fill-rule="evenodd" clip-rule="evenodd" d="M16 29.58C16 21.777 22.1134 16 30 16C37.8866 16 44 21.7769 44 29.5799C44 37.3829 37.8866 43.1599 30 43.1599C28.5834 43.1599 27.2244 42.9729 25.9474 42.6218C25.6993 42.5534 25.4352 42.5727 25.1996 42.6766L22.4209 43.9034C21.694 44.2243 20.8735 43.7074 20.8491 42.9131L20.7729 40.4227C20.7635 40.1159 20.6255 39.8291 20.3969 39.6245C17.6727 37.1883 16 33.6615 16 29.58ZM25.706 27.0255L21.5935 33.55C21.1987 34.1762 21.9684 34.8816 22.5579 34.4343L26.9756 31.0817C27.121 30.9714 27.2984 30.9114 27.481 30.9109C27.6635 30.9103 27.8413 30.9693 27.9873 31.0788L31.2583 33.5321C32.2397 34.2682 33.6407 34.0097 34.2949 32.9719L38.4074 26.4472C38.802 25.821 38.0322 25.1154 37.4427 25.5629L33.0252 28.9155C32.8798 29.0259 32.7024 29.0859 32.5198 29.0864C32.3372 29.087 32.1594 29.028 32.0133 28.9184L28.7424 26.4651C27.7609 25.729 26.36 25.9875 25.706 27.0255Z" fill="white"/>
<defs>
<radialGradient id="paint0_radial_702_3503" cx="0" cy="0" r="1" gradientUnits="userSpaceOnUse" gradientTransform="translate(-3.21429 30) rotate(-20.5561) scale(64.08 64.08)">
<stop stop-color="#0099FF"/>
<stop offset="0.60975" stop-color="#A033FF"/>
<stop offset="0.93482" stop-color="#FF5280"/>
<stop offset="1" stop-color="#FF7061"/>
</radialGradient>
</defs>
</svg>
