<?xml version="1.0" encoding="UTF-8" standalone="no"?>
<svg width="60" height="60" viewBox="0 0 60 60" fill="none" xmlns="http://www.w3.org/2000/svg">
  <circle cx="30" cy="30" r="30" fill="#FF4500"/>
  <path d="M50 30C50 28.3431 48.6569 27 47 27C46.2 27 45.4 27.3 44.9 27.8C41.9 25.7 38 24.4 33.7 24.2L35.7 16.5L41.5 17.8C41.6 19.4 42.9 20.7 44.5 20.7C46.2 20.7 47.5 19.4 47.5 17.7C47.5 16 46.2 14.7 44.5 14.7C43.3 14.7 42.2 15.4 41.7 16.4L35.1 15C34.6 14.9 34.2 15.2 34.1 15.7L31.8 24.2C27.4 24.3 23.4 25.6 20.3 27.8C19.7 27.3 19 27 18.2 27C16.5 27 15.2 28.3 15.2 30C15.2 31.1 15.9 32.1 16.8 32.6C16.7 33.1 16.7 33.6 16.7 34.1C16.7 40.6 22.6 46 30 46C37.4 46 43.3 40.6 43.3 34.1C43.3 33.6 43.3 33.1 43.2 32.6C44.2 32.1 44.9 31.1 44.9 30H50ZM22.5 32C23.9 32 25 33.1 25 34.5C25 35.9 23.9 37 22.5 37C21.1 37 20 35.9 20 34.5C20 33.1 21.1 32 22.5 32ZM37.6 40.1C35.9 41.8 33 42.1 30 42.1C27 42.1 24.1 41.8 22.4 40.1C22 39.7 22 39.1 22.4 38.7C22.8 38.3 23.4 38.3 23.8 38.7C24.9 39.8 27.2 40.2 30 40.2C32.8 40.2 35.1 39.9 36.2 38.7C36.6 38.3 37.2 38.3 37.6 38.7C38 39.1 38 39.8 37.6 40.1ZM37.5 37C36.1 37 35 35.9 35 34.5C35 33.1 36.1 32 37.5 32C38.9 32 40 33.1 40 34.5C40 35.9 38.9 37 37.5 37Z" fill="white"/>
</svg>
