<svg width="24" height="24" viewBox="0 0 24 24" fill="none" xmlns="http://www.w3.org/2000/svg">
<g id="Frame 427320205">
<path id="Vector" d="M15.1111 7.05L8.88889 10.65M8.88889 13.35L15.1111 16.95M17.3333 21C18.0406 21 18.7189 20.7155 19.219 20.2092C19.719 19.7028 20 19.0161 20 18.3C20 17.5839 19.719 16.8972 19.219 16.3908C18.7189 15.8845 18.0406 15.6 17.3333 15.6C16.6261 15.6 15.9478 15.8845 15.4477 16.3908C14.9476 16.8972 14.6667 17.5839 14.6667 18.3C14.6667 19.0161 14.9476 19.7028 15.4477 20.2092C15.9478 20.7155 16.6261 21 17.3333 21ZM17.3333 8.4C18.0406 8.4 18.7189 8.11554 19.219 7.60919C19.719 7.10284 20 6.41608 20 5.7C20 4.98392 19.719 4.29716 19.219 3.79081C18.7189 3.28446 18.0406 3 17.3333 3C16.6261 3 15.9478 3.28446 15.4477 3.79081C14.9476 4.29716 14.6667 4.98392 14.6667 5.7C14.6667 6.41608 14.9476 7.10284 15.4477 7.60919C15.9478 8.11554 16.6261 8.4 17.3333 8.4ZM6.66667 14.7C7.37391 14.7 8.05219 14.4155 8.55229 13.9092C9.05238 13.4028 9.33333 12.7161 9.33333 12C9.33333 11.2839 9.05238 10.5972 8.55229 10.0908C8.05219 9.58446 7.37391 9.3 6.66667 9.3C5.95942 9.3 5.28115 9.58446 4.78105 10.0908C4.28095 10.5972 4 11.2839 4 12C4 12.7161 4.28095 13.4028 4.78105 13.9092C5.28115 14.4155 5.95942 14.7 6.66667 14.7Z" stroke="#4F4F4F" stroke-width="3" stroke-linejoin="round"/>
</g>
</svg>
