<svg width="61" height="60" viewBox="0 0 61 60" fill="none" xmlns="http://www.w3.org/2000/svg">
<rect x="0.5" width="60" height="60" rx="30" fill="black"/>
<path d="M37.1405 28.9772C37.0192 28.9191 36.8968 28.8636 36.7733 28.8105C36.5572 24.8283 34.3812 22.5485 30.7275 22.5251H30.6779C28.4924 22.5251 26.6749 23.4579 25.5562 25.1554L27.5657 26.5338C28.4013 25.2658 29.7129 24.9955 30.6789 24.9955H30.7123C31.9153 25.0033 32.8231 25.3531 33.4107 26.0352C33.8382 26.5318 34.1242 27.218 34.2658 28.0841C33.1992 27.9029 32.0457 27.847 30.8125 27.9179C27.3387 28.1178 25.1054 30.1439 25.2555 32.9591C25.3316 34.3871 26.043 35.6156 27.2585 36.4181C28.2862 37.0965 29.6099 37.4283 30.9856 37.3532C32.8024 37.2536 34.2276 36.5604 35.2219 35.293C35.977 34.3305 36.4546 33.0832 36.6655 31.5115C37.5313 32.034 38.173 32.7216 38.5274 33.5482C39.1299 34.9533 39.1651 37.2623 37.2811 39.1447C35.6304 40.7938 33.6462 41.5072 30.6474 41.5293C27.3211 41.5046 24.8053 40.4378 23.1698 38.3585C21.6383 36.4115 20.8467 33.5993 20.8171 29.9998C20.8467 26.4004 21.6381 23.5881 23.1698 21.6411C24.8055 19.5618 27.3211 18.495 30.6474 18.4702C33.9979 18.495 36.5574 19.5669 38.2557 21.6563C39.0884 22.6809 39.7162 23.9692 40.1301 25.4715L42.4848 24.8433C41.9832 22.9941 41.1938 21.4008 40.1196 20.0792C37.9424 17.4008 34.7583 16.0283 30.6557 15.9998H30.6392C26.545 16.0281 23.3964 17.4059 21.2813 20.0948C19.3991 22.4872 18.4282 25.8166 18.3957 29.9899L18.3955 29.9998V30.0096C18.4282 34.1829 19.3991 37.5123 21.2813 39.905C23.3964 42.5937 26.545 43.9715 30.6392 43.9998H30.6557C34.2957 43.9746 36.8615 43.0216 38.9752 40.9098C41.7407 38.1469 41.6574 34.6838 40.7459 32.5579C40.092 31.0333 38.8453 29.7951 37.1405 28.9772ZM30.8555 34.8863C29.333 34.972 27.7513 34.2886 27.6734 32.8249C27.6155 31.7396 28.4458 30.5286 30.949 30.3844C31.2357 30.3678 31.517 30.3597 31.7934 30.3597C32.7026 30.3597 33.5533 30.4481 34.3266 30.6171C34.0382 34.2195 32.3462 34.8044 30.8555 34.8863Z" fill="white"/>
</svg>
