<?xml version="1.0" encoding="UTF-8"?>
<svg width="100" height="100" viewBox="0 0 100 100" version="1.1" xmlns="http://www.w3.org/2000/svg">
    <g stroke="none" stroke-width="1" fill="none" fill-rule="evenodd">
        <circle fill="#000000" cx="50" cy="50" r="50"/>
        <path d="M65.5,41.8 C65.5,41.7 65.5,41.6 65.5,41.5 C65.5,36.8 61.7,33 57,33 C56.9,33 56.8,33 56.7,33 L56.7,44.5 C56.7,49.2 52.9,53 48.2,53 C43.5,53 39.7,49.2 39.7,44.5 C39.7,39.8 43.5,36 48.2,36 C48.3,36 48.4,36 48.5,36 L48.5,24.5 C48.4,24.5 48.3,24.5 48.2,24.5 C37.1,24.5 28.2,33.4 28.2,44.5 C28.2,55.6 37.1,64.5 48.2,64.5 C59.3,64.5 68.2,55.6 68.2,44.5 C68.2,44.4 68.2,44.3 68.2,44.2 L68.2,33.2 C71.1,35.3 74.6,36.5 78.2,36.5 L78.2,25 C73.1,25 68.6,22.2 65.5,17.9 L65.5,41.8 Z" fill="#FFFFFF" fill-rule="nonzero"/>
        <path d="M64.5,40.8 C64.5,40.7 64.5,40.6 64.5,40.5 C64.5,35.8 60.7,32 56,32 C55.9,32 55.8,32 55.7,32 L55.7,43.5 C55.7,48.2 51.9,52 47.2,52 C42.5,52 38.7,48.2 38.7,43.5 C38.7,38.8 42.5,35 47.2,35 C47.3,35 47.4,35 47.5,35 L47.5,23.5 C47.4,23.5 47.3,23.5 47.2,23.5 C36.1,23.5 27.2,32.4 27.2,43.5 C27.2,54.6 36.1,63.5 47.2,63.5 C58.3,63.5 67.2,54.6 67.2,43.5 C67.2,43.4 67.2,43.3 67.2,43.2 L67.2,32.2 C70.1,34.3 73.6,35.5 77.2,35.5 L77.2,24 C72.1,24 67.6,21.2 64.5,16.9 L64.5,40.8 Z" fill="#25F4EE" fill-rule="nonzero"/>
        <path d="M55.7,43.5 L55.7,32 C55.8,32 55.9,32 56,32 C60.7,32 64.5,35.8 64.5,40.5 C64.5,40.6 64.5,40.7 64.5,40.8 L64.5,16.9 C67.6,21.2 72.1,24 77.2,24 L77.2,35.5 C73.6,35.5 70.1,34.3 67.2,32.2 L67.2,43.2 C67.2,43.3 67.2,43.4 67.2,43.5 C67.2,54.6 58.3,63.5 47.2,63.5 C36.1,63.5 27.2,54.6 27.2,43.5 C27.2,32.4 36.1,23.5 47.2,23.5 C47.3,23.5 47.4,23.5 47.5,23.5 L47.5,35 C47.4,35 47.3,35 47.2,35 C42.5,35 38.7,38.8 38.7,43.5 C38.7,48.2 42.5,52 47.2,52 C51.9,52 55.7,48.2 55.7,43.5 Z" fill="#FE2C55" fill-rule="nonzero"/>
    </g>
</svg>
