<?xml version="1.0" encoding="UTF-8"?>
<svg width="60" height="60" viewBox="0 0 60 60" fill="none" xmlns="http://www.w3.org/2000/svg">
  <circle cx="30" cy="30" r="30" fill="#000000"/>
  <path d="M40.5 24.5V19.5C38.1667 19.5 36.3333 18.6667 35 17C33.8333 18.5 32.1667 19.5 30 19.5V24.5C28.1667 24.5 26.5 25.1667 25.5 26.5V36C25.5 39.5 28.5 42.5 32 42.5C35.5 42.5 38.5 39.5 38.5 36C38.5 34.8333 38.1667 33.6667 37.5 32.5V24.5H40.5ZM32 39.5C30.1667 39.5 28.5 38 28.5 36C28.5 34 30 32.5 32 32.5C33.8333 32.5 35.5 34 35.5 36C35.5 38 33.8333 39.5 32 39.5Z" fill="white"/>
</svg>
