<?xml version="1.0" encoding="UTF-8"?>
<svg width="100" height="100" viewBox="0 0 100 100" version="1.1" xmlns="http://www.w3.org/2000/svg">
    <g stroke="none" stroke-width="1" fill="none" fill-rule="evenodd">
        <circle fill="#000000" cx="50" cy="50" r="50"/>
        <path d="M65.5,41.8 C65.5,41.7 65.5,41.6 65.5,41.5 C65.5,36.8 61.7,33 57,33 C56.9,33 56.8,33 56.7,33 L56.7,44.5 C56.7,49.2 52.9,53 48.2,53 C43.5,53 39.7,49.2 39.7,44.5 C39.7,39.8 43.5,36 48.2,36 C48.3,36 48.4,36 48.5,36 L48.5,24.5 C48.4,24.5 48.3,24.5 48.2,24.5 C37.1,24.5 28.2,33.4 28.2,44.5 C28.2,55.6 37.1,64.5 48.2,64.5 C59.3,64.5 68.2,55.6 68.2,44.5 C68.2,44.4 68.2,44.3 68.2,44.2 L68.2,33.2 C71.1,35.3 74.6,36.5 78.2,36.5 L78.2,25 C73.1,25 68.6,22.2 65.5,17.9 L65.5,41.8 Z" fill="#FFFFFF" fill-rule="nonzero"/>
    </g>
</svg>
