<?xml version="1.0" encoding="UTF-8"?>
<svg width="48px" height="48px" viewBox="0 0 48 48" version="1.1" xmlns="http://www.w3.org/2000/svg">
    <g stroke="none" stroke-width="1" fill="none" fill-rule="evenodd">
        <g transform="translate(-200.000000, -460.000000)">
            <g transform="translate(200.000000, 460.000000)">
                <path d="M0,24 C0,10.7452 10.7452,0 24,0 C37.2548,0 48,10.7452 48,24 C48,37.2548 37.2548,48 24,48 C10.7452,48 0,37.2548 0,24 Z" fill="#000000" fill-rule="nonzero"></path>
                <path d="M24.0002,11 C26.5002,11 29.0002,11 31.0002,11 C31.0002,12.5 31.0002,14 31.0002,15.5 C32.5002,16 34.0002,16 35.5002,16 C35.5002,18 35.5002,20 35.5002,22 C33.7502,22 32.0002,22 30.2502,21.25 C30.2502,25.75 30.2502,30.25 30.2502,34.75 C28.2502,34.75 26.2502,34.75 24.2502,34.75 C24.2502,30.25 24.2502,25.75 24.2502,21.25 C22.7502,21.25 21.2502,21.25 19.7502,21.25 C19.7502,19.5 19.7502,17.75 19.7502,16 C21.2502,16 22.7502,15.5 24.0002,14.5 C24.0002,13.5 24.0002,12.5 24.0002,11 Z" fill="#FFFFFF" fill-rule="nonzero"></path>
            </g>
        </g>
    </g>
</svg>
