<?xml version="1.0" encoding="UTF-8"?>
<svg width="48px" height="48px" viewBox="0 0 48 48" version="1.1" xmlns="http://www.w3.org/2000/svg">
    <defs>
        <linearGradient id="tiktokGradient" x1="0%" y1="0%" x2="100%" y2="100%">
            <stop offset="0%" style="stop-color:#25F4EE"/>
            <stop offset="100%" style="stop-color:#FE2C55"/>
        </linearGradient>
    </defs>
    <g stroke="none" stroke-width="1" fill="none" fill-rule="evenodd">
        <path d="M24,0 C37.2548,0 48,10.7452 48,24 C48,37.2548 37.2548,48 24,48 C10.7452,48 0,37.2548 0,24 C0,10.7452 10.7452,0 24,0 Z" fill="#000000" fill-rule="nonzero"/>
        <path d="M34.0214,18.9454 C33.1147,18.3967 32.3335,17.6456 31.7548,16.7389 C30.8481,15.3788 30.3994,13.7654 30.3994,12.1521 L25.9121,12.1521 L25.9121,30.2254 C25.9121,31.5855 25.4634,32.9456 24.5567,33.8523 C23.65,34.759 22.2899,35.2077 20.9298,35.2077 C19.5697,35.2077 18.2096,34.759 17.3029,33.8523 C16.3962,32.9456 15.9475,31.5855 15.9475,30.2254 C15.9475,28.8653 16.3962,27.5052 17.3029,26.5985 C18.2096,25.6918 19.5697,25.2431 20.9298,25.2431 C21.3785,25.2431 21.8272,25.2431 22.2759,25.3931 L22.2759,20.9058 C21.8272,20.7558 21.3785,20.7558 20.9298,20.7558 C18.6597,20.7558 16.3962,21.6625 14.7362,23.3225 C13.0762,24.9825 12.1695,27.246 12.1695,29.5161 C12.1695,31.7862 13.0762,34.0497 14.7362,35.7097 C16.3962,37.3697 18.6597,38.2764 20.9298,38.2764 C23.1999,38.2764 25.4634,37.3697 27.1234,35.7097 C28.7834,34.0497 29.6901,31.7862 29.6901,29.5161 L29.6901,20.4571 C31.3501,21.5138 33.1601,22.1125 35.0701,22.1125 L35.0701,17.6252 C34.7214,17.6252 34.3227,17.4752 34.0214,17.3252 L34.0214,18.9454 Z" fill="#FFFFFF" fill-rule="nonzero"/>
        <path d="M33.8714,17.3252 C33.1147,16.7765 32.3335,16.0254 31.7548,15.1187 C30.8481,13.7586 30.3994,12.1452 30.3994,10.5319 L25.9121,10.5319 L25.9121,28.6052 C25.9121,29.9653 25.4634,31.3254 24.5567,32.2321 C23.65,33.1388 22.2899,33.5875 20.9298,33.5875 C19.5697,33.5875 18.2096,33.1388 17.3029,32.2321 C16.3962,31.3254 15.9475,29.9653 15.9475,28.6052 C15.9475,27.2451 16.3962,25.885 17.3029,24.9783 C18.2096,24.0716 19.5697,23.6229 20.9298,23.6229 C21.3785,23.6229 21.8272,23.6229 22.2759,23.7729 L22.2759,19.2856 C21.8272,19.1356 21.3785,19.1356 20.9298,19.1356 C18.6597,19.1356 16.3962,20.0423 14.7362,21.7023 C13.0762,23.3623 12.1695,25.6258 12.1695,27.8959 C12.1695,30.166 13.0762,32.4295 14.7362,34.0895 C16.3962,35.7495 18.6597,36.6562 20.9298,36.6562 C23.1999,36.6562 25.4634,35.7495 27.1234,34.0895 C28.7834,32.4295 29.6901,30.166 29.6901,27.8959 L29.6901,18.8369 C31.3501,19.8936 33.1601,20.4923 35.0701,20.4923 L35.0701,16.005 C34.7214,16.005 34.3227,15.855 33.8714,15.705 L33.8714,17.3252 Z" fill="#FE2C55" fill-rule="nonzero"/>
        <path d="M31.7548,15.1187 C32.3335,16.0254 33.1147,16.7765 34.0214,17.3252 L34.0214,15.705 C33.5727,15.405 33.124,15.1037 32.6753,14.8024 C32.3741,14.6524 32.0728,14.5024 31.7715,14.3524 L31.7548,15.1187 Z" fill="#25F4EE" fill-rule="nonzero"/>
        <path d="M20.9298,23.6229 C19.5697,23.6229 18.2096,24.0716 17.3029,24.9783 C16.3962,25.885 15.9475,27.2451 15.9475,28.6052 C15.9475,29.9653 16.3962,31.3254 17.3029,32.2321 C18.2096,33.1388 19.5697,33.5875 20.9298,33.5875 C22.2899,33.5875 23.65,33.1388 24.5567,32.2321 C25.4634,31.3254 25.9121,29.9653 25.9121,28.6052 L25.9121,23.6229 C25.4634,23.6229 25.0147,23.6229 24.566,23.7729 C23.3559,23.6229 22.1458,23.6229 20.9298,23.6229 Z" fill="#25F4EE" fill-rule="nonzero"/>
        <path d="M35.0701,16.005 L35.0701,15.2387 C33.8541,15.2387 32.6753,14.9374 31.6186,14.3887 C32.0673,14.6899 32.516,14.9912 32.9647,15.2925 C33.5727,15.5937 34.3227,15.855 35.0701,16.005 Z" fill="#25F4EE" fill-rule="nonzero"/>
        <path d="M31.6186,14.3887 C30.7119,13.84 29.9307,13.0889 29.352,12.1822 C28.4453,10.8221 27.9966,9.2087 27.9966,7.5954 L27.2303,7.5954 C27.2303,9.2087 27.679,10.8221 28.5857,12.1822 C29.1644,13.0889 29.9456,13.84 30.8523,14.3887 C31.0023,14.4887 31.1523,14.5887 31.3023,14.6887 C31.4023,14.5887 31.5023,14.4887 31.6186,14.3887 Z" fill="#25F4EE" fill-rule="nonzero"/>
        <path d="M29.6901,18.8369 L29.6901,27.8959 C29.6901,30.166 28.7834,32.4295 27.1234,34.0895 C25.4634,35.7495 23.1999,36.6562 20.9298,36.6562 C18.6597,36.6562 16.3962,35.7495 14.7362,34.0895 C13.0762,32.4295 12.1695,30.166 12.1695,27.8959 C12.1695,25.6258 13.0762,23.3623 14.7362,21.7023 C16.3962,20.0423 18.6597,19.1356 20.9298,19.1356 C21.3785,19.1356 21.8272,19.1356 22.2759,19.2856 L22.2759,23.7729 C21.8272,23.6229 21.3785,23.6229 20.9298,23.6229 C19.5697,23.6229 18.2096,24.0716 17.3029,24.9783 C16.3962,25.885 15.9475,27.2451 15.9475,28.6052 C15.9475,29.9653 16.3962,31.3254 17.3029,32.2321 C18.2096,33.1388 19.5697,33.5875 20.9298,33.5875 C22.2899,33.5875 23.65,33.1388 24.5567,32.2321 C25.4634,31.3254 25.9121,29.9653 25.9121,28.6052 L25.9121,10.5319 L30.3994,10.5319 C30.3994,12.1452 30.8481,13.7586 31.7548,15.1187 C32.3335,16.0254 33.1147,16.7765 33.8714,17.3252 L34.0214,17.3252 C34.3227,17.4752 34.7214,17.6252 35.0701,17.6252 L35.0701,20.4923 C33.1601,20.4923 31.3501,19.8936 29.6901,18.8369 Z" fill="url(#tiktokGradient)" fill-rule="nonzero"/>
    </g>
</svg>
