<svg width="60" height="62" viewBox="0 0 60 62" fill="none" xmlns="http://www.w3.org/2000/svg">
<g id="Frame 427320064" filter="url(#filter0_d_622_3100)">
<rect width="60" height="60" rx="13" fill="#EB9100" shape-rendering="crispEdges"/>
<g id="Edit">
<path id="Edit_2" fill-rule="evenodd" clip-rule="evenodd" d="M26.7934 39.8119L37.5323 25.9244C38.1159 25.1755 38.3234 24.3097 38.1289 23.4281C37.9603 22.6266 37.4674 21.8646 36.7282 21.2865L34.9254 19.8544C33.356 18.6062 31.4106 18.7376 30.2952 20.1697L29.089 21.7345C28.9334 21.9303 28.9723 22.2194 29.1668 22.377C29.1668 22.377 32.2147 24.8208 32.2796 24.8733C32.4871 25.0704 32.6427 25.3332 32.6816 25.6485C32.7465 26.266 32.3185 26.8441 31.683 26.923C31.3847 26.9624 31.0993 26.8704 30.8918 26.6996L27.6883 24.1507C27.5326 24.0338 27.2992 24.0587 27.1695 24.2164L19.5563 34.0703C19.0634 34.6878 18.8948 35.4893 19.0634 36.2645L20.0362 40.4819C20.088 40.7053 20.2826 40.863 20.516 40.863L24.796 40.8104C25.5742 40.7973 26.3005 40.4425 26.7934 39.8119ZM32.7864 38.4986H39.7654C40.4463 38.4986 41.0001 39.0596 41.0001 39.7494C41.0001 40.4404 40.4463 41.0001 39.7654 41.0001H32.7864C32.1055 41.0001 31.5516 40.4404 31.5516 39.7494C31.5516 39.0596 32.1055 38.4986 32.7864 38.4986Z" fill="white"/>
</g>
</g>
<defs>
<filter id="filter0_d_622_3100" x="0" y="0" width="60" height="62" filterUnits="userSpaceOnUse" color-interpolation-filters="sRGB">
<feFlood flood-opacity="0" result="BackgroundImageFix"/>
<feColorMatrix in="SourceAlpha" type="matrix" values="0 0 0 0 0 0 0 0 0 0 0 0 0 0 0 0 0 0 127 0" result="hardAlpha"/>
<feOffset dy="2"/>
<feComposite in2="hardAlpha" operator="out"/>
<feColorMatrix type="matrix" values="0 0 0 0 0.775166 0 0 0 0 0.478294 0 0 0 0 0 0 0 0 1 0"/>
<feBlend mode="normal" in2="BackgroundImageFix" result="effect1_dropShadow_622_3100"/>
<feBlend mode="normal" in="SourceGraphic" in2="effect1_dropShadow_622_3100" result="shape"/>
</filter>
</defs>
</svg>
