<svg width="24" height="24" viewBox="0 0 24 24" fill="none" xmlns="http://www.w3.org/2000/svg">
<g id="Component 3">
<g id="Vector">
<path d="M5.37128 5.45767C6.16128 4.03267 6.53127 1.77766 8.50127 1.59766C9.72127 1.75266 10.8463 2.29266 11.9963 2.69766C13.4563 2.29766 15.0763 1.06765 16.5713 1.96765C17.6563 2.83765 17.9813 4.28765 18.6263 5.46765C19.9713 6.18765 22.0113 6.51267 22.3763 8.26767C22.4663 9.61267 21.5963 10.8026 21.4113 12.1176C21.6863 13.6026 23.0113 15.2227 22.0063 16.6977C21.1413 17.7277 19.6663 17.9227 18.6363 18.7377C17.7463 19.9077 17.6113 21.8077 16.0563 22.3427C14.6313 22.6377 13.3113 21.7577 11.9913 21.3727C10.6913 21.7577 9.40627 22.5977 8.00127 22.3627C6.63627 22.0177 6.36627 20.4577 5.73627 19.4127C5.01127 17.6777 2.34127 17.9977 1.71127 16.1627C1.33127 14.7327 2.24627 13.3927 2.66127 12.0727C2.24627 10.5477 0.936268 8.75767 2.06627 7.26267C2.96627 6.35767 4.25128 6.00767 5.37128 5.45767ZM15.1813 8.36765C13.5463 9.35765 12.2763 10.8227 10.9363 12.1677C10.1813 11.5427 9.45127 10.8526 8.54127 10.4626C7.73127 10.9626 6.65126 11.6426 6.67126 12.7126C7.87126 14.2926 9.26127 15.8527 11.0563 16.7627C13.4163 15.1427 15.1913 12.7727 16.9263 10.5177C18.0513 9.44767 16.4113 7.48765 15.1813 8.36765Z" fill="#27AE60"/>
<path d="M15.1813 8.36765C13.5463 9.35765 12.2763 10.8227 10.9363 12.1677C10.1813 11.5427 9.45127 10.8526 8.54127 10.4626C7.73127 10.9626 6.65126 11.6426 6.67126 12.7126C7.87126 14.2926 9.26127 15.8527 11.0563 16.7627C13.4163 15.1427 15.1913 12.7727 16.9263 10.5177C18.0513 9.44767 16.4113 7.48765 15.1813 8.36765Z" fill="white"/>
</g>
</g>
</svg>
